<?xml version="1.0" encoding="UTF-8"?>
<svg xmlns="http://www.w3.org/2000/svg" version="1.1" viewBox="0 0 863.27 264.51">
  <defs>
    <style>
      .cls-1 {
        fill: #70b9be;
      }

      .cls-2 {
        fill: #062729;
      }

      .cls-3 {
        fill: #fdfdfd;
      }
    </style>
  </defs>
  <!-- Generator: Adobe Illustrator 28.7.1, SVG Export Plug-In . SVG Version: 1.2.0 Build 142)  -->
  <g>
    <g id="Layer_2">
      <g>
        <path class="cls-2" d="M132.71,131.91c-11.29.05-21.13-3.57-29.23-11.58-1.98-1.96-3.75-4.24-1.33-6.89,2.41-2.63,5.2-1.92,7.44.34,11.66,11.77,32.78,12.57,45.68.44.12-.11.27-.2.39-.31,2.52-2.06,5.34-3.49,7.83-.42,2.55,3.15.12,5.56-2.14,7.63-7.83,7.18-17.4,10.74-28.65,10.79h0Z"/>
        <circle class="cls-2" cx="132.25" cy="132.25" r="132.25"/>
        <path class="cls-3" d="M132.75,180.82h46.97c7.67,0,8.96,1.62,8.11,9.16-1.01,8.96-4.46,16.65-11.15,22.74-1.77,1.61-2.19,2.89.11,4.17,3.17,1.76,3.06,4.13,1.91,7.19-1.29,3.44-3.69,3.12-6.48,2.86-4.65-.43-8.85-1.99-12.11-5.27-2.2-2.22-4.51-2.95-7.54-2.93-15.49.1-30.98-.28-46.46.1-19.25.48-30.03-16.35-28.51-33.86.33-3.74,3.06-4.18,6.18-4.17,16.32.05,32.64.02,48.97.02h0Z"/>
        <path class="cls-3" d="M132.25,170.83c-16.33,0-32.65.02-48.98,0-5.66,0-6.64-1.03-6.66-6.76-.03-9.32-.15-18.65.06-27.97.08-3.63-.84-5.68-4.52-7.1-13.19-5.09-21.14-14.53-22.94-28.85-2.84-22.55,15.28-43.71,40.2-37.72,3.57.86,5.21.45,6.9-3.02,7.35-15.04,19.89-22.76,36.38-22.87,16.14-.11,28.35,7.62,36,21.92,1.64,3.07,3.24,3.9,6.63,3.15,17.67-3.89,35.18,7.64,39.14,25.55,4.15,18.8-4.01,34.02-22.22,40.85-3.14,1.18-3.88,2.82-3.83,5.87.17,9.32.08,18.65.08,27.97,0,8.11-.82,8.96-8.76,8.97-15.83,0-31.65,0-47.48,0v.02ZM132.71,131.91c11.25-.04,20.81-3.6,28.65-10.79,2.26-2.07,4.69-4.48,2.14-7.63-2.48-3.06-5.31-1.64-7.83.42-.13.11-.27.19-.39.31-12.9,12.12-34.02,11.33-45.68-.44-2.23-2.26-5.02-2.97-7.44-.34-2.42,2.64-.65,4.93,1.33,6.89,8.09,8.01,17.94,11.63,29.23,11.58h0Z"/>
      </g>
      <g>
        <path class="cls-1" d="M784.31,208.7c2.97,0,5.59-.19,8.18.03,12.88,1.1,19.08-8.81,20.6-18.64.81-5.25-2.98-9.39-4.82-13.92-8.98-22.16-18.24-44.21-27.52-66.25-1.47-3.48-.55-4.37,2.96-4.18,3.82.21,7.68.29,11.48-.01,4.07-.33,5.86,1.45,7.21,5.15,5.73,15.77,11.75,31.44,17.67,47.14.63,1.68.93,3.87,3.28,3.8,2.34-.07,2.58-2.34,3.12-3.99,5.14-15.65,10.32-31.28,15.21-47,1.21-3.88,3.09-5.44,7.13-5.1,3.64.31,7.34.27,10.98,0,3.4-.25,4.1.91,2.99,3.96-2.44,6.72-4.69,13.51-7.13,20.23-8.23,22.66-15.26,45.75-24.32,68.11-6.53,16.1-17.4,26.95-35.71,28.32-.83.06-1.66.17-2.49.17-8,.04-8.83-.78-8.82-8.62v-9.2h0Z"/>
        <path class="cls-1" d="M739.4,102.68c9.39.37,18.47,2.57,26.49,8.22,6.64,4.68,6.7,8.04.27,12.79-5.73,4.24-5.82,4.36-13.45-.77-6.54-4.39-13.54-5.22-21-3.5-3.59.83-6.55,2.37-7.1,6.62-.57,4.43,1.68,7.02,5.47,8.39,8.91,3.21,18,5.95,26.81,9.39,9.15,3.57,14.88,9.91,15.74,20.38,1.18,14.42-8.97,22.85-21.27,26.1-16.46,4.35-31.27.1-44.43-10.26-5.2-4.09-4.99-7.69.28-11.73,1.05-.81,2.25-1.45,3.2-2.36,2.4-2.28,4.23-2.12,6.57.42,7.61,8.24,17.26,10.11,27.89,7.94,4.31-.88,7.83-2.91,8.41-7.93.59-5.07-2.85-7.29-6.68-8.69-7.03-2.56-14.29-4.48-21.33-7.03-9.01-3.26-16.94-7.63-19.15-18.32-1.78-8.62,1.58-17.75,8.97-22.55,7.32-4.76,15.35-6.98,24.31-7.13v.02Z"/>
      </g>
      <g>
        <path class="cls-2" d="M613.4,128.36c0-18.65.12-37.29-.09-55.94-.04-3.94,1.29-5.44,5.04-5.3,4.32.17,8.66.52,12.96.29,3.74-.2,4.24,1.45,4.22,4.66-.12,20.48-.09,40.95-.01,61.43,0,1.69-.05,4.39.92,4.94,1.62.63,2.64-1.67,3.71-2.82,8.61-9.27,17.21-18.54,25.63-27.98,1.73-1.93,3.39-2.87,5.95-2.81,5.33.13,10.66,0,15.99.07,1.42.02,3.42-.78,4.14.7.85,1.76-1.16,2.93-2.15,4.1-5.4,6.33-10.94,12.54-16.43,18.79-2.86,3.25-5.64,6.57-8.63,9.69-2.43,2.54-2.23,4.72-.16,7.43,10.1,13.23,20.09,26.55,30.07,39.86.83,1.11,2.64,2.15,1.7,3.75-.71,1.21-11.7.64-11.7.64-12.07.37-15.5-2.22-20.47-10.09-4.69-7.43-10.77-13.97-15.86-21.17-2.52-3.56-4-2.97-6.85-.35-4.34,4-6.73,8.29-6.01,14.39.5,4.27-.07,8.65.15,12.97.17,3.35-1.19,4.36-4.37,4.22-4.49-.2-9.01-.29-13.49.02-3.7.26-4.35-1.27-4.33-4.59.14-18.98.07-37.96.07-56.94v.04Z"/>
        <path class="cls-2" d="M604.5,146.94c1.34,26.21-19.39,46.63-47.17,45.87-20.79-.56-44.37-14.58-44.52-45.97-.13-28.11,22.51-45.98,47.84-45.08,21.17.75,45.46,17.21,43.84,45.18h0ZM536.49,146.92c0,1.5-.08,3,.01,4.49.63,9.98,7.4,18.49,16.22,20.44,15.53,3.44,27.58-5.8,28.73-22.03.89-12.63-4.44-23-13.6-26.45-16.97-6.39-31.57,4.54-31.36,23.55h0Z"/>
        <path class="cls-2" d="M506.5,147.69c0,26.56-18.61,45.11-45.22,45.13-21.69.02-46.43-13.96-46.38-46.13.05-31.22,26.34-45.38,47.02-44.99,22.42.42,46.05,17.59,44.59,45.98h0ZM461.1,121.87c-13.89-.02-22.56,9.26-22.59,24.15-.03,16.26,8.84,26.88,22.38,26.8,13.25-.08,22.54-10.47,22.6-25.26.06-15.45-8.86-25.68-22.4-25.69h0Z"/>
        <path class="cls-2" d="M359.66,192.93c-25.94.49-54.23-16.91-60.53-48.09-7.61-37.71,14.6-71.86,53.44-76.61,22.03-2.69,39.9,6.37,53.15,24.31,2.05,2.77,1.73,4.61-1.08,6.54-3.84,2.63-7.55,5.47-11.2,8.36-2.05,1.62-3.39,1.27-4.96-.69-2.29-2.84-4.56-5.8-7.34-8.11-21.23-17.67-52.53-6.15-57.52,21.15-2.74,14.97-.83,28.9,10.44,40.22,13.58,13.63,37.03,13.47,50.96-.13,5.6-5.47,3.95-6.5,11.59-.99,2.56,1.85,5.05,3.85,7.79,5.39,3.54,1.99,3.78,4.01,1.1,6.96-12.32,13.56-27.18,21.63-45.84,21.69h0Z"/>
      </g>
    </g>
  </g>
</svg>