<?xml version="1.0" encoding="UTF-8"?>
<svg id="Layer_2" xmlns="http://www.w3.org/2000/svg" viewBox="0 0 264.5 264.5">
  <defs>
    <style>
      .cls-1 {
        fill: #062729;
      }

      .cls-2 {
        fill: #fdfdfd;
      }
    </style>
  </defs>
  <path class="cls-1" d="M132.71,131.91c-11.29.05-21.13-3.57-29.23-11.58-1.98-1.96-3.75-4.24-1.33-6.89,2.41-2.63,5.2-1.92,7.44.34,11.66,11.77,32.78,12.57,45.68.44.12-.11.27-.2.39-.31,2.52-2.06,5.34-3.49,7.83-.42,2.55,3.15.12,5.56-2.14,7.63-7.83,7.18-17.4,10.74-28.65,10.79h0Z"/>
  <circle class="cls-1" cx="132.25" cy="132.25" r="132.25"/>
  <path class="cls-2" d="M132.75,180.82h46.97c7.67,0,8.96,1.62,8.11,9.16-1.01,8.96-4.46,16.65-11.15,22.74-1.77,1.61-2.19,2.89.11,4.17,3.17,1.76,3.06,4.13,1.91,7.19-1.29,3.44-3.69,3.12-6.48,2.86-4.65-.43-8.85-1.99-12.11-5.27-2.2-2.22-4.51-2.95-7.54-2.93-15.49.1-30.98-.28-46.46.1-19.25.48-30.03-16.35-28.51-33.86.33-3.74,3.06-4.18,6.18-4.17,16.32.05,32.64.02,48.97.02h0Z"/>
  <path class="cls-2" d="M132.25,170.83c-16.33,0-32.65.02-48.98,0-5.66,0-6.64-1.03-6.66-6.76-.03-9.32-.15-18.65.06-27.97.08-3.63-.84-5.68-4.52-7.1-13.19-5.09-21.14-14.53-22.94-28.85-2.84-22.55,15.28-43.71,40.2-37.72,3.57.86,5.21.45,6.9-3.02,7.35-15.04,19.89-22.76,36.38-22.87,16.14-.11,28.35,7.62,36,21.92,1.64,3.07,3.24,3.9,6.63,3.15,17.67-3.89,35.18,7.64,39.14,25.55,4.15,18.8-4.01,34.02-22.22,40.85-3.14,1.18-3.88,2.82-3.83,5.87.17,9.32.08,18.65.08,27.97,0,8.11-.82,8.96-8.76,8.97-15.83,0-31.65,0-47.48,0v.02ZM132.71,131.91c11.25-.04,20.81-3.6,28.65-10.79,2.26-2.07,4.69-4.48,2.14-7.63-2.48-3.06-5.31-1.64-7.83.42-.13.11-.27.19-.39.31-12.9,12.12-34.02,11.33-45.68-.44-2.23-2.26-5.02-2.97-7.44-.34-2.42,2.64-.65,4.93,1.33,6.89,8.09,8.01,17.94,11.63,29.23,11.58h0Z"/>
</svg>