<?xml version="1.0" encoding="UTF-8"?>
<svg id="Layer_2" xmlns="http://www.w3.org/2000/svg" viewBox="0 0 565.62 159.41">
  <defs>
    <style>
      .cls-1 {
        fill: #70b9be;
      }

      .cls-2 {
        fill: #062729;
      }
    </style>
  </defs>
  <g>
    <path class="cls-1" d="M486.67,141.59c2.97,0,5.59-.19,8.18.03,12.88,1.1,19.08-8.81,20.6-18.64.81-5.25-2.98-9.39-4.82-13.92-8.98-22.16-18.24-44.21-27.52-66.25-1.47-3.48-.55-4.37,2.96-4.18,3.82.21,7.68.29,11.48-.01,4.07-.33,5.86,1.45,7.21,5.15,5.73,15.77,11.75,31.44,17.67,47.14.63,1.68.93,3.87,3.28,3.8,2.34-.07,2.58-2.34,3.12-3.99,5.14-15.65,10.32-31.28,15.21-47,1.21-3.88,3.09-5.44,7.13-5.1,3.64.31,7.34.27,10.98,0,3.4-.25,4.1.91,2.99,3.96-2.44,6.72-4.69,13.51-7.13,20.23-8.23,22.66-15.26,45.75-24.32,68.11-6.53,16.1-17.4,26.95-35.71,28.32-.83.06-1.66.17-2.49.17-8,.04-8.83-.78-8.82-8.62v-9.2h0Z"/>
    <path class="cls-1" d="M441.76,35.57c9.39.37,18.47,2.57,26.49,8.22,6.64,4.68,6.7,8.04.27,12.79-5.73,4.24-5.82,4.36-13.45-.77-6.54-4.39-13.54-5.22-21-3.5-3.59.83-6.55,2.37-7.1,6.62-.57,4.43,1.68,7.02,5.47,8.39,8.91,3.21,18,5.95,26.81,9.39,9.15,3.57,14.88,9.91,15.74,20.38,1.18,14.42-8.97,22.85-21.27,26.1-16.46,4.35-31.27.1-44.43-10.26-5.2-4.09-4.99-7.69.28-11.73,1.05-.81,2.25-1.45,3.2-2.36,2.4-2.28,4.23-2.12,6.57.42,7.61,8.24,17.26,10.11,27.89,7.94,4.31-.88,7.83-2.91,8.41-7.93.59-5.07-2.85-7.29-6.68-8.69-7.03-2.56-14.29-4.48-21.33-7.03-9.01-3.26-16.94-7.63-19.15-18.32-1.78-8.62,1.58-17.75,8.97-22.55,7.32-4.76,15.35-6.98,24.31-7.13v.02Z"/>
  </g>
  <g>
    <path class="cls-2" d="M315.76,61.25c0-18.65.12-37.29-.09-55.94-.04-3.94,1.29-5.44,5.04-5.3,4.32.17,8.66.52,12.96.29,3.74-.2,4.24,1.45,4.22,4.66-.12,20.48-.09,40.95-.01,61.43,0,1.69-.05,4.39.92,4.94,1.62.63,2.64-1.67,3.71-2.82,8.61-9.27,17.21-18.54,25.63-27.98,1.73-1.93,3.39-2.87,5.95-2.81,5.33.13,10.66,0,15.99.07,1.42.02,3.42-.78,4.14.7.85,1.76-1.16,2.93-2.15,4.1-5.4,6.33-10.94,12.54-16.43,18.79-2.86,3.25-5.64,6.57-8.63,9.69-2.43,2.54-2.23,4.72-.16,7.43,10.1,13.23,20.09,26.55,30.07,39.86.83,1.11,2.64,2.15,1.7,3.75-.71,1.21-11.7.64-11.7.64-12.07.37-15.5-2.22-20.47-10.09-4.69-7.43-10.77-13.97-15.86-21.17-2.52-3.56-4-2.97-6.85-.35-4.34,4-6.73,8.29-6.01,14.39.5,4.27-.07,8.65.15,12.97.17,3.35-1.19,4.36-4.37,4.22-4.49-.2-9.01-.29-13.49.02-3.7.26-4.35-1.27-4.33-4.59.14-18.98.07-37.96.07-56.94v.04Z"/>
    <path class="cls-2" d="M306.86,79.83c1.34,26.21-19.39,46.63-47.17,45.87-20.79-.56-44.37-14.58-44.52-45.97-.13-28.11,22.51-45.98,47.84-45.08,21.17.75,45.46,17.21,43.84,45.18h0ZM238.85,79.81c0,1.5-.08,3,.01,4.49.63,9.98,7.4,18.49,16.22,20.44,15.53,3.44,27.58-5.8,28.73-22.03.89-12.63-4.44-23-13.6-26.45-16.97-6.39-31.57,4.54-31.36,23.55h0Z"/>
    <path class="cls-2" d="M208.86,80.58c0,26.56-18.61,45.11-45.22,45.13-21.69.02-46.43-13.96-46.38-46.13.05-31.22,26.34-45.38,47.02-44.99,22.42.42,46.05,17.59,44.59,45.98h0ZM163.46,54.76c-13.89-.02-22.56,9.26-22.59,24.15-.03,16.26,8.84,26.88,22.38,26.8,13.25-.08,22.54-10.47,22.6-25.26.06-15.45-8.86-25.68-22.4-25.69h0Z"/>
    <path class="cls-2" d="M62.02,125.82c-25.94.49-54.23-16.91-60.53-48.09C-6.12,40.02,16.09,5.87,54.93,1.12c22.03-2.69,39.9,6.37,53.15,24.31,2.05,2.77,1.73,4.61-1.08,6.54-3.84,2.63-7.55,5.47-11.2,8.36-2.05,1.62-3.39,1.27-4.96-.69-2.29-2.84-4.56-5.8-7.34-8.11-21.23-17.67-52.53-6.15-57.52,21.15-2.74,14.97-.83,28.9,10.44,40.22,13.58,13.63,37.03,13.47,50.96-.13,5.6-5.47,3.95-6.5,11.59-.99,2.56,1.85,5.05,3.85,7.79,5.39,3.54,1.99,3.78,4.01,1.1,6.96-12.32,13.56-27.18,21.63-45.84,21.69h0Z"/>
  </g>
</svg>